<?xml version="1.0" encoding="UTF-8" standalone="no"?>
<!DOCTYPE svg PUBLIC "-//W3C//DTD SVG 1.1//EN"
 "http://www.w3.org/Graphics/SVG/1.1/DTD/svg11.dtd">
<!-- Generated by graphviz version 2.43.0 (0)
 -->
<!-- Title: g Pages: 1 -->
<svg width="587pt" height="476pt"
 viewBox="0.00 0.00 587.30 476.00" xmlns="http://www.w3.org/2000/svg" xmlns:xlink="http://www.w3.org/1999/xlink">
<g id="graph0" class="graph" transform="scale(1 1) rotate(0) translate(4 472)">
<title>g</title>
<polygon fill="white" stroke="transparent" points="-4,4 -4,-472 583.3,-472 583.3,4 -4,4"/>
<!-- pzl -->
<g id="node1" class="node">
<title>pzl</title>
<ellipse fill="none" stroke="black" cx="137" cy="-162" rx="27" ry="18"/>
<text text-anchor="middle" x="137" y="-158.3" font-family="Times,serif" font-size="14.00">pzl</text>
</g>
<!-- rsh -->
<g id="node2" class="node">
<title>rsh</title>
<ellipse fill="none" stroke="black" cx="27" cy="-90" rx="27" ry="18"/>
<text text-anchor="middle" x="27" y="-86.3" font-family="Times,serif" font-size="14.00">rsh</text>
</g>
<!-- pzl&#45;&#45;rsh -->
<g id="edge1" class="edge">
<title>pzl&#45;&#45;rsh</title>
<path fill="none" stroke="black" d="M117.84,-148.81C97.65,-135.96 66.05,-115.85 45.94,-103.05"/>
</g>
<!-- rzs -->
<g id="node3" class="node">
<title>rzs</title>
<ellipse fill="none" stroke="black" cx="123" cy="-18" rx="27" ry="18"/>
<text text-anchor="middle" x="123" y="-14.3" font-family="Times,serif" font-size="14.00">rzs</text>
</g>
<!-- rsh&#45;&#45;rzs -->
<g id="edge2" class="edge">
<title>rsh&#45;&#45;rzs</title>
<path fill="none" stroke="black" d="M44.61,-76.16C61.93,-63.53 88.22,-44.36 105.5,-31.76"/>
</g>
<!-- frs -->
<g id="node4" class="node">
<title>frs</title>
<ellipse fill="none" stroke="black" cx="54" cy="-378" rx="27" ry="18"/>
<text text-anchor="middle" x="54" y="-374.3" font-family="Times,serif" font-size="14.00">frs</text>
</g>
<!-- frs&#45;&#45;rsh -->
<g id="edge3" class="edge">
<title>frs&#45;&#45;rsh</title>
<path fill="none" stroke="black" d="M45.98,-360.52C35.06,-337.08 16.06,-292.44 9,-252 -0.09,-199.91 13.88,-137.5 21.94,-108.02"/>
</g>
<!-- qnr -->
<g id="node5" class="node">
<title>qnr</title>
<ellipse fill="none" stroke="black" cx="209" cy="-162" rx="27" ry="18"/>
<text text-anchor="middle" x="209" y="-158.3" font-family="Times,serif" font-size="14.00">qnr</text>
</g>
<!-- frs&#45;&#45;qnr -->
<g id="edge4" class="edge">
<title>frs&#45;&#45;qnr</title>
<path fill="none" stroke="black" d="M59.25,-360.06C65.45,-341.48 76.86,-311.22 92,-288 121.72,-242.44 168.73,-198.14 193.13,-176.58"/>
</g>
<!-- lsr -->
<g id="node6" class="node">
<title>lsr</title>
<ellipse fill="none" stroke="black" cx="45" cy="-234" rx="27" ry="18"/>
<text text-anchor="middle" x="45" y="-230.3" font-family="Times,serif" font-size="14.00">lsr</text>
</g>
<!-- frs&#45;&#45;lsr -->
<g id="edge5" class="edge">
<title>frs&#45;&#45;lsr</title>
<path fill="none" stroke="black" d="M52.91,-359.87C51.18,-332.58 47.82,-279.52 46.09,-252.19"/>
</g>
<!-- lhk -->
<g id="node7" class="node">
<title>lhk</title>
<ellipse fill="none" stroke="black" cx="128" cy="-306" rx="27" ry="18"/>
<text text-anchor="middle" x="128" y="-302.3" font-family="Times,serif" font-size="14.00">lhk</text>
</g>
<!-- frs&#45;&#45;lhk -->
<g id="edge6" class="edge">
<title>frs&#45;&#45;lhk</title>
<path fill="none" stroke="black" d="M68.98,-362.83C81.81,-350.69 100.22,-333.28 113.05,-321.14"/>
</g>
<!-- qnr&#45;&#45;rzs -->
<g id="edge22" class="edge">
<title>qnr&#45;&#45;rzs</title>
<path fill="none" stroke="black" d="M199.3,-144.99C182.78,-117.71 149.38,-62.55 132.79,-35.17"/>
</g>
<!-- lsr&#45;&#45;pzl -->
<g id="edge7" class="edge">
<title>lsr&#45;&#45;pzl</title>
<path fill="none" stroke="black" d="M62.3,-219.83C78.75,-207.32 103.35,-188.6 119.77,-176.11"/>
</g>
<!-- lsr&#45;&#45;rsh -->
<g id="edge8" class="edge">
<title>lsr&#45;&#45;rsh</title>
<path fill="none" stroke="black" d="M42.83,-215.87C39.37,-188.58 32.64,-135.52 29.18,-108.19"/>
</g>
<!-- lsr&#45;&#45;rzs -->
<g id="edge9" class="edge">
<title>lsr&#45;&#45;rzs</title>
<path fill="none" stroke="black" d="M51.12,-216.21C65.7,-176.2 102.36,-75.64 116.91,-35.71"/>
</g>
<!-- lhk&#45;&#45;lsr -->
<g id="edge15" class="edge">
<title>lhk&#45;&#45;lsr</title>
<path fill="none" stroke="black" d="M111.6,-291.17C96.96,-278.82 75.63,-260.83 61.08,-248.56"/>
</g>
<!-- nvd -->
<g id="node12" class="node">
<title>nvd</title>
<ellipse fill="none" stroke="black" cx="203" cy="-234" rx="27.9" ry="18"/>
<text text-anchor="middle" x="203" y="-230.3" font-family="Times,serif" font-size="14.00">nvd</text>
</g>
<!-- lhk&#45;&#45;nvd -->
<g id="edge16" class="edge">
<title>lhk&#45;&#45;nvd</title>
<path fill="none" stroke="black" d="M143.18,-290.83C156.19,-278.69 174.84,-261.28 187.85,-249.14"/>
</g>
<!-- ntq -->
<g id="node8" class="node">
<title>ntq</title>
<ellipse fill="none" stroke="black" cx="538" cy="-306" rx="27" ry="18"/>
<text text-anchor="middle" x="538" y="-302.3" font-family="Times,serif" font-size="14.00">ntq</text>
</g>
<!-- xhk -->
<g id="node9" class="node">
<title>xhk</title>
<ellipse fill="none" stroke="black" cx="483" cy="-234" rx="27.1" ry="18"/>
<text text-anchor="middle" x="483" y="-230.3" font-family="Times,serif" font-size="14.00">xhk</text>
</g>
<!-- ntq&#45;&#45;xhk -->
<g id="edge10" class="edge">
<title>ntq&#45;&#45;xhk</title>
<path fill="none" stroke="black" d="M526.07,-289.81C516.97,-278.23 504.48,-262.34 495.29,-250.64"/>
</g>
<!-- jqt -->
<g id="node10" class="node">
<title>jqt</title>
<ellipse fill="none" stroke="black" cx="455" cy="-378" rx="27" ry="18"/>
<text text-anchor="middle" x="455" y="-374.3" font-family="Times,serif" font-size="14.00">jqt</text>
</g>
<!-- jqt&#45;&#45;ntq -->
<g id="edge11" class="edge">
<title>jqt&#45;&#45;ntq</title>
<path fill="none" stroke="black" d="M471.4,-363.17C486.04,-350.82 507.37,-332.83 521.92,-320.56"/>
</g>
<!-- jqt&#45;&#45;xhk -->
<g id="edge12" class="edge">
<title>jqt&#45;&#45;xhk</title>
<path fill="none" stroke="black" d="M458.38,-359.87C463.76,-332.58 474.22,-279.52 479.61,-252.19"/>
</g>
<!-- rhn -->
<g id="node11" class="node">
<title>rhn</title>
<ellipse fill="none" stroke="black" cx="390" cy="-306" rx="27" ry="18"/>
<text text-anchor="middle" x="390" y="-302.3" font-family="Times,serif" font-size="14.00">rhn</text>
</g>
<!-- jqt&#45;&#45;rhn -->
<g id="edge13" class="edge">
<title>jqt&#45;&#45;rhn</title>
<path fill="none" stroke="black" d="M441.22,-362.15C430.18,-350.28 414.79,-333.7 403.76,-321.82"/>
</g>
<!-- jqt&#45;&#45;nvd -->
<g id="edge14" class="edge">
<title>jqt&#45;&#45;nvd</title>
<path fill="none" stroke="black" d="M454.26,-359.95C452.44,-339.83 446.32,-306.72 426,-288 397.54,-261.78 283.6,-244.81 230.5,-238.17"/>
</g>
<!-- rhn&#45;&#45;xhk -->
<g id="edge23" class="edge">
<title>rhn&#45;&#45;xhk</title>
<path fill="none" stroke="black" d="M407.49,-291.83C424.12,-279.32 448.98,-260.6 465.59,-248.11"/>
</g>
<!-- nvd&#45;&#45;pzl -->
<g id="edge32" class="edge">
<title>nvd&#45;&#45;pzl</title>
<path fill="none" stroke="black" d="M189,-218.15C177.8,-206.28 162.17,-189.7 150.98,-177.82"/>
</g>
<!-- nvd&#45;&#45;qnr -->
<g id="edge33" class="edge">
<title>nvd&#45;&#45;qnr</title>
<path fill="none" stroke="black" d="M204.48,-215.7C205.41,-204.85 206.61,-190.92 207.53,-180.1"/>
</g>
<!-- bvb -->
<g id="node13" class="node">
<title>bvb</title>
<ellipse fill="none" stroke="black" cx="395" cy="-450" rx="27.9" ry="18"/>
<text text-anchor="middle" x="395" y="-446.3" font-family="Times,serif" font-size="14.00">bvb</text>
</g>
<!-- bvb&#45;&#45;ntq -->
<g id="edge17" class="edge">
<title>bvb&#45;&#45;ntq</title>
<path fill="none" stroke="black" d="M418.79,-440.43C439.89,-431.85 470.46,-416.92 491,-396 511.56,-375.05 525.38,-343.27 532.45,-323.89"/>
</g>
<!-- bvb&#45;&#45;xhk -->
<g id="edge18" class="edge">
<title>bvb&#45;&#45;xhk</title>
<path fill="none" stroke="black" d="M420.27,-442.03C446.37,-433.97 487.34,-418.8 517,-396 549.36,-371.12 560.59,-362.55 574,-324 579.26,-308.89 581.97,-301.87 574,-288 559.88,-263.43 529.5,-249.18 507.72,-241.77"/>
</g>
<!-- bvb&#45;&#45;rhn -->
<g id="edge19" class="edge">
<title>bvb&#45;&#45;rhn</title>
<path fill="none" stroke="black" d="M394.4,-431.87C393.44,-404.58 391.57,-351.52 390.61,-324.19"/>
</g>
<!-- hfx -->
<g id="node14" class="node">
<title>hfx</title>
<ellipse fill="none" stroke="black" cx="340" cy="-378" rx="27" ry="18"/>
<text text-anchor="middle" x="340" y="-374.3" font-family="Times,serif" font-size="14.00">hfx</text>
</g>
<!-- bvb&#45;&#45;hfx -->
<g id="edge20" class="edge">
<title>bvb&#45;&#45;hfx</title>
<path fill="none" stroke="black" d="M382.79,-433.46C373.68,-421.86 361.28,-406.08 352.17,-394.49"/>
</g>
<!-- cmg -->
<g id="node15" class="node">
<title>cmg</title>
<ellipse fill="none" stroke="black" cx="259" cy="-378" rx="30.59" ry="18"/>
<text text-anchor="middle" x="259" y="-374.3" font-family="Times,serif" font-size="14.00">cmg</text>
</g>
<!-- bvb&#45;&#45;cmg -->
<g id="edge21" class="edge">
<title>bvb&#45;&#45;cmg</title>
<path fill="none" stroke="black" d="M373.75,-438.06C348.65,-425.14 307.07,-403.74 281.46,-390.56"/>
</g>
<!-- hfx&#45;&#45;pzl -->
<g id="edge24" class="edge">
<title>hfx&#45;&#45;pzl</title>
<path fill="none" stroke="black" d="M318.43,-367.17C281.77,-349.4 207.28,-308.44 166,-252 150.08,-230.22 142.61,-199.27 139.33,-180.19"/>
</g>
<!-- hfx&#45;&#45;ntq -->
<g id="edge25" class="edge">
<title>hfx&#45;&#45;ntq</title>
<path fill="none" stroke="black" d="M363.49,-368.7C401.6,-355.22 476.45,-328.76 514.54,-315.29"/>
</g>
<!-- hfx&#45;&#45;xhk -->
<g id="edge26" class="edge">
<title>hfx&#45;&#45;xhk</title>
<path fill="none" stroke="black" d="M338.05,-359.99C336.77,-340.51 337.71,-308.62 354,-288 379.14,-256.17 426.61,-243.31 456.42,-238.21"/>
</g>
<!-- hfx&#45;&#45;rhn -->
<g id="edge27" class="edge">
<title>hfx&#45;&#45;rhn</title>
<path fill="none" stroke="black" d="M351.1,-361.46C359.38,-349.86 370.66,-334.08 378.93,-322.49"/>
</g>
<!-- cmg&#45;&#45;rzs -->
<g id="edge28" class="edge">
<title>cmg&#45;&#45;rzs</title>
<path fill="none" stroke="black" d="M266.51,-360.34C277.58,-334.2 297,-281.7 297,-235 297,-235 297,-235 297,-161 297,-84.58 195,-41.94 147.19,-26.15"/>
</g>
<!-- cmg&#45;&#45;qnr -->
<g id="edge29" class="edge">
<title>cmg&#45;&#45;qnr</title>
<path fill="none" stroke="black" d="M259.25,-359.58C259.18,-329.48 256.81,-266.17 240,-216 235.46,-202.46 227.18,-188.57 220.32,-178.41"/>
</g>
<!-- cmg&#45;&#45;lhk -->
<g id="edge30" class="edge">
<title>cmg&#45;&#45;lhk</title>
<path fill="none" stroke="black" d="M237.07,-365.28C212.45,-352.13 172.81,-330.94 148.7,-318.06"/>
</g>
<!-- cmg&#45;&#45;nvd -->
<g id="edge31" class="edge">
<title>cmg&#45;&#45;nvd</title>
<path fill="none" stroke="black" d="M252.36,-360.15C241.58,-332.82 220.41,-279.14 209.64,-251.82"/>
</g>
</g>
</svg>
